<svg width="19" height="18" viewBox="0 0 19 18" fill="none" xmlns="http://www.w3.org/2000/svg">
<path d="M11.3081 16.3044V12.1305C11.3081 11.946 11.2305 11.7691 11.0925 11.6386C10.9544 11.5082 10.7671 11.4349 10.5718 11.4349H7.62664C7.43136 11.4349 7.24409 11.5082 7.106 11.6386C6.96792 11.7691 6.89035 11.946 6.89035 12.1305V16.3044C6.89035 16.4889 6.81277 16.6658 6.67469 16.7963C6.53661 16.9267 6.34933 17 6.15405 17H1.73629C1.54102 17 1.35374 16.9267 1.21566 16.7963C1.07757 16.6658 1 16.4889 1 16.3044V8.26453C1.00001 8.16758 1.02147 8.07171 1.06299 7.98307C1.10452 7.89442 1.1652 7.81495 1.24114 7.74976L8.60407 1.18119C8.73964 1.06461 8.91637 1 9.09969 1C9.28301 1 9.45974 1.06461 9.59531 1.18119L16.9582 7.74976C17.0342 7.81495 17.0949 7.89442 17.1364 7.98307C17.1779 8.07171 17.1994 8.16758 17.1994 8.26453V16.3044C17.1994 16.4889 17.1218 16.6658 16.9837 16.7963C16.8456 16.9267 16.6584 17 16.4631 17H12.0444C11.8491 17 11.6618 16.9267 11.5238 16.7963C11.3857 16.6658 11.3081 16.4889 11.3081 16.3044Z" stroke="#972119" stroke-width="2" stroke-linecap="round" stroke-linejoin="round"/>
</svg>
