<svg width="8" height="8" viewBox="0 0 8 8" fill="none" xmlns="http://www.w3.org/2000/svg">
<path fill-rule="evenodd" clip-rule="evenodd" d="M4.00001 6.00198C3.73711 6.00198 3.47678 5.9502 3.23388 5.84959C2.99099 5.74898 2.77029 5.60151 2.58439 5.41561C2.39848 5.22971 2.25102 5.00901 2.15041 4.76611C2.0498 4.52322 1.99802 4.26289 1.99802 3.99998C1.99802 3.73708 2.0498 3.47674 2.15041 3.23385C2.25102 2.99096 2.39848 2.77026 2.58439 2.58435C2.77029 2.39845 2.99099 2.25098 3.23388 2.15037C3.47678 2.04976 3.73711 1.99798 4.00001 1.99798C4.53098 1.99798 5.04019 2.20891 5.41564 2.58435C5.79109 2.9598 6.00201 3.46902 6.00201 3.99998C6.00201 4.53094 5.79109 5.04016 5.41564 5.41561C5.04019 5.79106 4.53098 6.00198 4.00001 6.00198ZM4.00001 0.915981C3.18209 0.915981 2.39766 1.2409 1.8193 1.81926C1.24094 2.39763 0.916016 3.18205 0.916016 3.99998C0.916016 4.81791 1.24094 5.60234 1.8193 6.1807C2.39766 6.75906 3.18209 7.08398 4.00001 7.08398C4.81794 7.08398 5.60237 6.75906 6.18073 6.1807C6.75909 5.60234 7.08401 4.81791 7.08401 3.99998C7.08401 3.18205 6.75909 2.39763 6.18073 1.81926C5.60237 1.2409 4.81794 0.915981 4.00001 0.915981ZM7.98121 0.859981C7.98121 1.05332 7.90441 1.23875 7.7677 1.37546C7.63098 1.51218 7.44556 1.58898 7.25221 1.58898C7.05887 1.58898 6.87345 1.51218 6.73673 1.37546C6.60002 1.23875 6.52321 1.05332 6.52321 0.859981C6.52321 0.666639 6.60002 0.481215 6.73673 0.344501C6.87345 0.207787 7.05887 0.130981 7.25221 0.130981C7.44556 0.130981 7.63098 0.207787 7.7677 0.344501C7.90441 0.481215 7.98121 0.666639 7.98121 0.859981Z" fill="black" fill-opacity="0.6"/>
</svg>
