<svg width="12" height="12" viewBox="0 0 12 12" fill="none" xmlns="http://www.w3.org/2000/svg">
<path d="M12 0.882353V11.1176C12 11.3517 11.907 11.5761 11.7416 11.7416C11.5761 11.907 11.3517 12 11.1176 12H0.882353C0.648338 12 0.423908 11.907 0.258435 11.7416C0.0929619 11.5761 0 11.3517 0 11.1176L0 0.882353C0 0.648338 0.0929619 0.423908 0.258435 0.258435C0.423908 0.0929619 0.648338 0 0.882353 0L11.1176 0C11.3517 0 11.5761 0.0929619 11.7416 0.258435C11.907 0.423908 12 0.648338 12 0.882353ZM3.52941 4.58824H1.76471V10.2353H3.52941V4.58824ZM3.68824 2.64706C3.68917 2.51357 3.66379 2.38121 3.61357 2.25753C3.56334 2.13385 3.48925 2.02128 3.39552 1.92623C3.30178 1.83119 3.19025 1.75554 3.06728 1.7036C2.94431 1.65166 2.81231 1.62445 2.67882 1.62353H2.64706C2.3756 1.62353 2.11526 1.73137 1.92331 1.92331C1.73137 2.11526 1.62353 2.3756 1.62353 2.64706C1.62353 2.91852 1.73137 3.17885 1.92331 3.3708C2.11526 3.56275 2.3756 3.67059 2.64706 3.67059C2.78055 3.67387 2.91339 3.65082 3.03797 3.60275C3.16255 3.55468 3.27644 3.48253 3.37313 3.39043C3.46982 3.29833 3.54742 3.18808 3.60149 3.06598C3.65555 2.94388 3.68503 2.81232 3.68824 2.67882V2.64706ZM10.2353 6.80471C10.2353 5.10706 9.15529 4.44706 8.08235 4.44706C7.73105 4.42947 7.38128 4.50429 7.06791 4.66407C6.75456 4.82385 6.48856 5.06299 6.29647 5.35765H6.24706V4.58824H4.58824V10.2353H6.35294V7.23176C6.32743 6.92415 6.42433 6.6189 6.62258 6.38232C6.82084 6.14573 7.10443 5.99693 7.41177 5.96824H7.47882C8.04 5.96824 8.45647 6.32118 8.45647 7.21059V10.2353H10.2212L10.2353 6.80471Z" fill="black" fill-opacity="0.6"/>
</svg>
