<svg width="19" height="18" viewBox="0 0 19 18" fill="none" xmlns="http://www.w3.org/2000/svg">
<path d="M11.9516 10.8555C12.0491 10.7914 12.1613 10.7523 12.278 10.7419C12.3947 10.7314 12.5121 10.7498 12.6198 10.7955L16.7719 12.6329C16.9118 12.692 17.0286 12.7943 17.1048 12.9244C17.1809 13.0545 17.2124 13.2055 17.1945 13.3547C17.0577 14.3643 16.5543 15.2905 15.7779 15.9611C15.0015 16.6316 14.005 17.0008 12.9737 17C9.79809 17 6.75253 15.754 4.50702 13.5361C2.26151 11.3183 1 8.31019 1 5.17365C0.999212 4.15502 1.37302 3.17078 2.05189 2.40396C2.73077 1.63715 3.66851 1.13996 4.69072 1.00486C4.84183 0.987128 4.99469 1.01821 5.12642 1.09345C5.25815 1.1687 5.36167 1.28405 5.42147 1.42226L7.2818 5.5267C7.32751 5.63212 7.34612 5.74706 7.33599 5.8613C7.32585 5.97554 7.28727 6.08554 7.22369 6.1815L5.34224 8.39111C5.2755 8.49058 5.23603 8.60544 5.2277 8.72449C5.21936 8.84353 5.24245 8.96267 5.29469 9.07026C6.0228 10.5425 7.56354 12.046 9.05849 12.7582C9.168 12.8095 9.28918 12.8318 9.41007 12.8228C9.53096 12.8138 9.64738 12.7739 9.74786 12.7069L11.9516 10.8555Z" stroke="#972119" stroke-width="2" stroke-linecap="round" stroke-linejoin="round"/>
</svg>
