<svg width="14" height="12" viewBox="0 0 14 12" fill="none" xmlns="http://www.w3.org/2000/svg">
<path d="M12.3017 3.28003C12.3098 3.39757 12.3098 3.51512 12.3098 3.63374C12.3098 7.24834 9.5581 11.4171 4.52648 11.4171V11.4149C3.04012 11.4171 1.58464 10.9913 0.333374 10.1886C0.549502 10.2146 0.766714 10.2276 0.984468 10.2281C2.21624 10.2292 3.4128 9.81588 4.38185 9.05483C3.21129 9.03262 2.18482 8.2694 1.82623 7.15517C2.23628 7.23426 2.65879 7.21801 3.06125 7.10805C1.78506 6.85021 0.866924 5.72894 0.866924 4.42675C0.866924 4.41484 0.866924 4.40346 0.866924 4.39209C1.24718 4.60388 1.67294 4.72143 2.10844 4.73443C0.906466 3.93112 0.535961 2.3321 1.26181 1.08191C2.65066 2.7909 4.69982 3.82983 6.89956 3.93979C6.6791 2.98969 6.98027 1.99409 7.69095 1.32621C8.79272 0.290523 10.5255 0.343608 11.5612 1.44483C12.1739 1.32404 12.761 1.09924 13.2984 0.780739C13.0942 1.41396 12.6668 1.95184 12.0958 2.29364C12.6381 2.22972 13.1678 2.08455 13.6667 1.86301C13.2995 2.41335 12.8369 2.89273 12.3017 3.28003Z" fill="black" fill-opacity="0.6"/>
</svg>
